<svg xmlns="http://www.w3.org/2000/svg" xmlns:xlink="http://www.w3.org/1999/xlink" xmlns:fi="http://pattern.flaticon.com/" x="0" y="0" width="700" height="350" viewBox="0 0 700 350"><rect x="0px" y="0px" width="100%" height="100%" opacity="1" fill="#ffffff"/><defs><g transform="matrix(0.1260504275560379 0 0 0.1260504275560379 329 172)" id="L1_66"><path d="M428.7,9h-0.4c-10.918,0-19.8,8.882-19.8,19.8v315.01c0,33.189-27.001,60.19-60.19,60.19h-59.62   c-33.189,0-60.19-27.001-60.19-60.19V333h-40v10.81c0,55.245,44.945,100.19,100.19,100.19h59.619   c55.245,0,100.19-44.945,100.19-100.19V28.8C448.5,17.882,439.618,9,428.7,9z" fill="#a18671"/><path d="M154.461,298l1.378,9.186c2.206,14.716,15.1,25.814,29.991,25.814h49.34   c14.892,0,27.785-11.098,29.991-25.814l1.378-9.186H154.461z" fill="#f8a805"/><path d="M96.5,333c-11.579,0-21,9.42-21,21s9.421,21,21,21s21-9.42,21-21S108.079,333,96.5,333z" fill="#ecf0f1"/><path d="M142.5,398c-19.299,0-35,15.701-35,35s15.701,35,35,35s35-15.701,35-35S161.799,398,142.5,398z" fill="#ecf0f1"/><path d="M320,250c-15.163,0-27.5,12.336-27.5,27.5S304.837,305,320,305c15.163,0,27.5-12.336,27.5-27.5   S335.163,250,320,250z" fill="#ecf0f1"/><path d="M164.996,140.5L46.171,259.336l8.066,5.423C64.202,271.459,75.818,275,87.83,275h27.72   c30.023,0,54.45-24.426,54.45-54.45v-0.85c0-16.377,13.323-29.7,29.7-29.7h0.6c16.377,0,29.7,13.323,29.7,29.7v0.85   c0,30.024,24.426,54.45,54.45,54.45h7.536l1.745-5.632C297.265,257.964,308.066,250,320,250c7.858,0,15.368,3.399,20.604,9.326   l5.274,5.971l5.993-5.249c13.109-11.483,20.629-28.022,20.629-45.378V140.5H164.996z" fill="#3e81c8"/><path d="M327.5,168c-12.131,0-22,9.869-22,22s9.869,22,22,22c12.131,0,22-9.869,22-22S339.631,168,327.5,168   z" fill="#ecf0f1"/><path d="M124.996,140.5l-94.301,94.311l2.343,5.066c2.036,4.402,4.604,8.563,7.634,12.367l5.581,7.006   L165.004,140.5H124.996z" fill="#3e81c8"/><path d="M27.5,140.5v74.17c0,1.438,0.061,2.905,0.185,4.487l1.36,17.302l95.959-95.959H27.5z" fill="#3e81c8"/><rect x="27px" y="100px" width="345px" height="40px" fill="#f8a805"/><path d="M170.5,8c-16.542,0-30,13.458-30,30s13.458,30,30,30s30-13.458,30-30S187.042,8,170.5,8z" fill="#ecf0f1"/><g><path d="M428.7,1h-0.4c-15.33,0-27.8,12.47-27.8,27.8v315.01c0,28.78-23.41,52.19-52.19,52.19h-59.62    c-28.78,0-52.19-23.41-52.19-52.19v-2.84c20.52-0.71,37-17.61,37-38.3V298c0-4.42-3.58-8-8-8h-110c-4.42,0-8,3.58-8,8v4.67    c0,19.32,14.38,35.35,33,37.95v3.19c0,59.66,48.53,108.19,108.19,108.19h59.62c59.66,0,108.19-48.53,108.19-108.19V28.8    C456.5,13.47,444.03,1,428.7,1z M163.75,306h93.5c-1.61,10.74-10.9,19-22.08,19h-49.34C174.65,325,165.36,316.74,163.75,306z     M440.5,343.81c0,50.83-41.36,92.19-92.19,92.19h-59.62c-50.83,0-92.19-41.36-92.19-92.19V341h24v2.81    c0,37.6,30.59,68.19,68.19,68.19h59.62c37.6,0,68.19-30.59,68.19-68.19V28.8c0-6.51,5.29-11.8,11.8-11.8h0.4    c6.51,0,11.8,5.29,11.8,11.8L440.5,343.81L440.5,343.81z"/><path d="M96.5,325c-15.99,0-29,13.01-29,29s13.01,29,29,29s29-13.01,29-29S112.49,325,96.5,325z M96.5,367c-7.17,0-13-5.83-13-13    s5.83-13,13-13s13,5.83,13,13S103.67,367,96.5,367z"/><path d="M142.5,390c-23.71,0-43,19.29-43,43s19.29,43,43,43s43-19.29,43-43S166.21,390,142.5,390z M142.5,460    c-14.89,0-27-12.11-27-27s12.11-27,27-27s27,12.11,27,27S157.39,460,142.5,460z"/><path d="M327.5,160c-16.54,0-30,13.46-30,30s13.46,30,30,30c16.54,0,30-13.46,30-30S344.04,160,327.5,160z M327.5,204    c-7.72,0-14-6.28-14-14s6.28-14,14-14c7.72,0,14,6.28,14,14S335.22,204,327.5,204z"/><path d="M372.5,92.5h-345c-4.42,0-8,3.58-8,8v114.17c0,37.68,30.65,68.33,68.33,68.33h27.72c34.43,0,62.45-28.02,62.45-62.45    v-0.85c0-11.97,9.73-21.7,21.7-21.7h0.6c11.97,0,21.7,9.73,21.7,21.7v0.85c0,34.43,28.02,62.45,62.45,62.45h0.48    c2.65,16.97,17.37,30,35.07,30c19.57,0,35.5-15.93,35.5-35.5c0-3.14-0.42-6.19-1.19-9.09c15.94-12.52,26.19-31.96,26.19-53.74    V100.5C380.5,96.08,376.92,92.5,372.5,92.5z M35.66,218.53c-0.1-1.28-0.16-2.56-0.16-3.86V148.5h70.19L35.66,218.53z M40.3,236.52    l88.01-88.02h17.38l-98.76,98.76C44.31,243.97,42.08,240.37,40.3,236.52z M320,297c-10.75,0-19.5-8.75-19.5-19.5    S309.25,258,320,258s19.5,8.75,19.5,19.5S330.75,297,320,297z M364.5,214.67c0,15.68-6.94,29.76-17.9,39.36    C340.09,246.66,330.58,242,320,242c-15.92,0-29.43,10.54-33.91,25h-1.64c-25.61,0-46.45-20.84-46.45-46.45v-0.85    c0-20.79-16.91-37.7-37.7-37.7h-0.6c-20.79,0-37.7,16.91-37.7,37.7v0.85c0,25.61-20.84,46.45-46.45,46.45H87.83    c-10.77,0-20.8-3.28-29.13-8.88L168.31,148.5H364.5V214.67z M364.5,132.5h-329v-24h329V132.5z"/><path d="M170.5,0c-20.95,0-38,17.05-38,38s17.05,38,38,38s38-17.05,38-38S191.45,0,170.5,0z M170.5,60c-12.13,0-22-9.87-22-22    s9.87-22,22-22s22,9.87,22,22S182.63,60,170.5,60z"/></g></g><g transform="matrix(0.1376146823167801 0 0 0.1376146823167801 14 96)" id="L1_67"><path d="M428.003,218l-44.23-37.856l23.464-53.292l-56.312-14.833l-1.978-58.198l-57.183,10.964   l-27.038-51.563l-46.729,34.781L171.274,13.22l-27.037,51.573L87.052,53.82l-1.981,58.193L28.763,126.85l23.464,53.292L7.997,218   l44.231,37.857l-23.464,53.292l56.311,14.833l1.978,58.198l57.093-10.956c0.065-0.012,0.104-0.016,0.09-0.009l27.039,51.564   l46.719-34.782l46.733,34.781l27.035-51.572l57.186,10.973l1.98-58.194l56.309-14.836l-23.464-53.292L428.003,218z M358,218   c0,77.196-62.804,140-140,140S78,295.196,78,218S140.804,78,218,78S358,140.803,358,218z" fill="#f5c525"/><path d="M218,78c-77.196,0-140,62.804-140,140s62.804,140,140,140s140-62.804,140-140S295.196,78,218,78z" fill="#f8a805"/><g><path d="M218,70c-81.61,0-148,66.39-148,148s66.39,148,148,148s148-66.39,148-148S299.61,70,218,70z M218,350    c-72.79,0-132-59.21-132-132S145.21,86,218,86c72.78,0,132,59.21,132,132S290.78,350,218,350z"/><path d="M433.2,211.92l-39.71-33.99l21.07-47.85c0.94-2.14,0.9-4.59-0.12-6.7c-1.01-2.11-2.9-3.66-5.16-4.26l-50.56-13.33    l-1.78-52.25c-0.08-2.33-1.18-4.52-3.01-5.98c-1.82-1.46-4.2-2.04-6.49-1.6l-51.35,9.85l-24.28-46.3    c-1.09-2.08-3.03-3.57-5.31-4.09s-4.68-0.01-6.56,1.38L218,38.03L176.05,6.8c-1.88-1.39-4.27-1.9-6.55-1.38s-4.22,2.01-5.31,4.09    l-24.28,46.3l-51.35-9.85c-2.3-0.44-4.67,0.14-6.5,1.6c-1.82,1.46-2.92,3.65-3,5.98l-1.78,52.25l-50.56,13.33    c-2.26,0.6-4.15,2.15-5.17,4.26c-1.01,2.11-1.05,4.56-0.11,6.7l21.07,47.85L2.8,211.92C1.02,213.44,0,215.66,0,218    s1.02,4.56,2.8,6.08l39.71,33.99l-21.07,47.85c-0.95,2.14-0.9,4.59,0.11,6.7c1.02,2.11,2.91,3.66,5.17,4.26l50.56,13.33    l1.78,52.25c0.08,2.33,1.17,4.52,3,5.98c1.83,1.46,4.21,2.04,6.5,1.6l51.35-9.85l24.28,46.3c1.09,2.08,3.03,3.57,5.31,4.09    s4.67,0.01,6.55-1.38L218,397.97l41.94,31.23c1.4,1.03,3.08,1.58,4.78,1.58c0.59,0,1.19-0.07,1.78-0.2    c2.28-0.52,4.22-2.01,5.31-4.09l24.28-46.3l51.34,9.85c2.3,0.44,4.68-0.14,6.5-1.6c1.83-1.46,2.93-3.65,3.01-5.98l1.78-52.25    l50.55-13.33c2.27-0.6,4.16-2.15,5.17-4.26c1.02-2.11,1.06-4.56,0.12-6.7l-21.07-47.85l39.71-33.99c1.78-1.52,2.8-3.74,2.8-6.08    S434.98,213.44,433.2,211.92z M378.57,249.78c-2.68,2.29-3.54,6.07-2.12,9.3l19.69,44.72l-47.25,12.45    c-3.42,0.9-5.84,3.93-5.96,7.46l-1.66,48.85l-48-9.21c-3.46-0.66-6.95,1.02-8.59,4.15l-22.69,43.27l-39.22-29.19    c-2.83-2.11-6.71-2.11-9.55,0l-39.21,29.19l-22.69-43.27c-1.4-2.67-4.15-4.29-7.08-4.29c-0.5,0-1.01,0.05-1.51,0.14l-48,9.21    l-1.66-48.85c-0.12-3.53-2.54-6.56-5.96-7.46L39.86,303.8l19.69-44.72c1.42-3.23,0.56-7.01-2.12-9.3L20.3,218l37.13-31.78    c2.68-2.29,3.54-6.07,2.12-9.3L39.86,132.2l47.25-12.45c3.42-0.9,5.84-3.93,5.96-7.46l1.66-48.85l48,9.21    c3.46,0.66,6.95-1.02,8.59-4.15l22.69-43.27l39.21,29.19c2.84,2.11,6.72,2.11,9.55,0l39.22-29.19l22.69,43.27    c1.64,3.13,5.13,4.81,8.59,4.15l48-9.21l1.66,48.85c0.12,3.53,2.54,6.56,5.96,7.46l47.25,12.45l-19.69,44.72    c-1.42,3.23-0.56,7.01,2.12,9.3L415.7,218L378.57,249.78z"/></g></g><g transform="matrix(0.1388888955116272 0 0 0.1388888955116272 250 41)" id="L1_68"><rect x="227px" y="350px" width="47px" height="29px" fill="#f8a805"/><rect x="208px" y="379px" width="85px" height="45px" fill="#a18671"/><path d="M316.596,22.909L279.647,5.023l27.528,30.451c3.467,3.835,6.761,8.039,9.792,12.498   C334.722,74.047,344.5,109.571,344.5,148c0,38.074-9.923,87.382-27.225,135.282L313.404,294h33.961l2.313-3.983   C378.799,239.869,395.5,188.105,395.5,148C395.5,94.4,365.266,46.468,316.596,22.909z" fill="#3e81c8"/><path d="M275.673,12.851l-18.238-7.215l7.989,17.913c2.828,6.339,5.419,14.554,7.703,24.418   C279.171,74.043,282.5,109.569,282.5,148c0,38.585-3.455,88.524-9.479,137.014L271.904,294h41.406l1.943-5.199   C333.84,239.066,344.5,187.746,344.5,148C344.5,83.449,316.841,29.137,275.673,12.851z" fill="#f8a805"/><path d="M273.517,49.683C270.216,34.932,263,9.916,251.765,8.102L251.111,8h-1.299l-0.649,0.107   c-11.191,1.853-18.388,26.838-21.68,41.566c-5.793,25.9-8.983,60.819-8.983,98.327c0,39.187,3.548,89.85,9.732,138.999l0.881,7.001   h42.772l0.882-7.001C278.952,237.86,282.5,187.197,282.5,148C282.5,110.489,279.31,75.572,273.517,49.683z" fill="#3e81c8"/><path d="M235.576,23.549l7.989-17.913l-18.238,7.215C184.159,29.137,156.5,83.449,156.5,148   c0,39.745,10.66,91.064,29.247,140.8l1.943,5.2h41.406l-1.117-8.986c-6.024-48.49-9.479-98.429-9.479-137.014   c0-38.433,3.329-73.958,9.374-100.036C230.157,38.103,232.748,29.888,235.576,23.549z" fill="#f8a805"/><path d="M193.824,35.475L221.36,5.021L184.404,22.91C135.734,46.468,105.5,94.4,105.5,148   c0,40.104,16.702,91.868,45.822,142.017l2.313,3.983h33.961l-3.871-10.718C166.423,235.384,156.5,186.075,156.5,148   c0-38.429,9.778-73.953,27.536-100.033C187.064,43.512,190.357,39.309,193.824,35.475z" fill="#3e81c8"/><g><path d="M124.5,327h-8c-4.419,0-8,3.582-8,8c0,4.419,3.581,8,8,8h8c4.418,0,8-3.581,8-8C132.5,330.582,128.918,327,124.5,327z"/><path d="M76.5,343h8c4.418,0,8-3.581,8-8c0-4.418-3.582-8-8-8h-8c-4.419,0-8,3.582-8,8C68.5,339.419,72.081,343,76.5,343z"/><path d="M72.5,370c0-4.418-3.582-8-8-8h-8c-4.419,0-8,3.582-8,8s3.581,8,8,8h8C68.918,378,72.5,374.418,72.5,370z"/><path d="M104.5,362h-8c-4.419,0-8,3.582-8,8s3.581,8,8,8h8c4.418,0,8-3.582,8-8S108.918,362,104.5,362z"/><path d="M44.5,397h-8c-4.419,0-8,3.582-8,8s3.581,8,8,8h8c4.418,0,8-3.582,8-8S48.918,397,44.5,397z"/><path d="M84.5,397h-8c-4.419,0-8,3.582-8,8s3.581,8,8,8h8c4.418,0,8-3.582,8-8S88.918,397,84.5,397z"/><path d="M294.6,6c-13.92-3.91-28.71-6-44.1-6s-30.18,2.09-44.1,6C142.76,23.9,97.5,79.9,97.5,148    c0,42.71,17.96,97.42,49.29,150.09c0.02,0.03,0.04,0.06,0.06,0.09c0.02,0.04,0.05,0.09,0.07,0.13L200,381.34V424    c0,4.42,3.58,8,8,8h85c4.42,0,8-3.58,8-8v-42.66l53.08-83.03c0.02-0.04,0.05-0.09,0.07-0.13c0.02-0.03,0.04-0.06,0.06-0.09    C385.54,245.42,403.5,190.71,403.5,148C403.5,79.9,358.24,23.9,294.6,6z M336.5,148c0,39.01-10.44,89.03-28.74,138h-26.8    c6.08-48.94,9.54-98.77,9.54-138c0-39.01-3.4-75.18-9.58-101.84c-2.41-10.41-5.13-19.01-8.19-25.87    C309.84,34.97,336.5,85.83,336.5,148z M274.5,148c0,39.13-3.51,89.06-9.67,138h-28.66c-6.16-48.95-9.67-98.87-9.67-138    c0-36.94,3.12-71.23,8.79-96.58c6.35-28.4,13.61-35.16,15.18-35.42c0.01,0,0.01,0,0.02,0c1.61,0.26,8.86,7.01,15.22,35.43    C271.38,76.77,274.5,111.07,274.5,148z M228.27,20.29c-3.06,6.86-5.78,15.46-8.19,25.87c-6.18,26.66-9.58,62.83-9.58,101.84    c0,39.23,3.46,89.06,9.54,138h-26.8c-18.3-48.97-28.74-98.99-28.74-138C164.5,85.83,191.16,34.97,228.27,20.29z M113.5,148    c0-52.15,29.87-96.34,74.39-117.89c-3.68,4.07-7.18,8.52-10.47,13.36C158.77,70.86,148.5,107.99,148.5,148    c0,39.34,10.03,89.08,27.7,138h-17.96C129.77,236.97,113.5,186.88,113.5,148z M285,416h-69v-29h69V416z M235,371v-13h31v13H235z     M288.62,371H282v-21c0-4.42-3.58-8-8-8h-47c-4.42,0-8,3.58-8,8v21h-6.62l-44.11-69h164.46L288.62,371z M342.76,286H324.8    c17.67-48.92,27.7-98.66,27.7-138c0-40.01-10.27-77.14-28.92-104.53c-3.29-4.84-6.79-9.29-10.47-13.36    C357.63,51.66,387.5,95.85,387.5,148C387.5,186.88,371.23,236.97,342.76,286z"/></g></g><g transform="matrix(0.1260504275560379 0 0 0.1260504275560379 224 126)" id="L1_69"><path d="M279,94.99 279,299.995 426.001,299.995z" fill="#efefef"/><path d="M84.272,299.995 199,299.995 199,139.99z" fill="#efefef"/><path d="M53.996,335.995l6.338,41.221l4.216,1.705c5.134,2.077,8.854,5.635,12.45,9.074   c5.651,5.408,11.496,11,23.01,11c11.505,0,17.35-5.592,23.004-11.003c5.646-5.406,11.482-10.997,22.996-10.997   c11.494,0,17.08,5.34,23,11c5.651,5.408,11.496,11,23,11c11.505,0,17.35-5.592,23.004-11.003   c5.646-5.406,11.482-10.997,22.986-10.997c11.513,0,17.351,5.591,23,11c5.651,5.408,11.496,11,23,11s17.349-5.592,23.007-11.006   c5.913-5.654,11.499-10.994,22.993-10.994s17.08,5.34,23.001,11.001c5.354,5.121,10.89,10.415,21.248,10.948l1.295,0.067   l1.249-0.346c24.993-6.914,43.309-27.967,46.659-53.635l1.18-9.036H53.996V335.995z" fill="#3e81c8"/><path d="M236.192,41.449c-8.238-7.027-16.999-10.444-26.782-10.444c-13.495,0-26.573,6.313-40.415,12.994   c-6.751,3.256-13.732,6.622-20.688,9.1c-7.344,2.615-13.796,3.886-19.727,3.886c-6.431,0-12.276-1.422-17.873-4.349L99,46.514   v42.628l2.803,2.395c8.229,7.03,16.987,10.448,26.777,10.448h0.01c13.506,0,26.574-6.313,40.48-13.03   c13.223-6.367,26.895-12.95,40.34-12.95c6.429,0,12.279,1.423,17.887,4.352L239,86.468V43.844L236.192,41.449z" fill="#f8a805"/><g><path d="M432.21,294.925L285.5,90.335c-2.03-2.83-5.64-4.02-8.95-2.96c-3.31,1.07-5.55,4.14-5.55,7.62v205c0,4.42,3.58,8,8,8h147    c0,0,0.01,0,0.02,0c4.42,0,8-3.58,8-8C434.02,298.075,433.34,296.305,432.21,294.925z M376.74,291.995    c-0.24-0.91-0.63-1.8-1.21-2.62l-46-65c-2.55-3.61-7.55-4.46-11.15-1.91c-3.61,2.55-4.46,7.54-1.91,11.15l41.31,58.38H287v-172.12    l123.42,172.12H376.74z"/><path d="M201.45,132.375c-3.31-1.06-6.93,0.13-8.95,2.96l-114.74,160c-1.74,2.44-1.98,5.65-0.61,8.31    c1.37,2.67,4.12,4.35,7.12,4.35H199c4.42,0,8-3.58,8-8v-160C207,136.515,204.75,133.445,201.45,132.375z M191,291.995H99.85    l12.23-17.06c0.3,0.04,0.61,0.06,0.92,0.06h61c4.42,0,8-3.58,8-8s-3.58-8-8-8h-50.49l67.49-94.12V291.995z"/><path d="M468,390.995c-8.29,0-12.14-3.68-17.47-8.78c-5.83-5.57-13.01-12.43-26.23-13.15c4.92-9.76,7.7-20.77,7.7-32.42v-0.65    c0-4.42-3.58-8-8-8H247v-284c0-1.39-0.36-2.7-0.99-3.84c-0.01-0.02-0.02-0.03-0.02-0.05c-0.12-0.21-0.25-0.42-0.38-0.62    c-0.05-0.07-0.11-0.13-0.16-0.2c-0.1-0.14-0.2-0.28-0.32-0.42c-0.06-0.08-0.14-0.16-0.21-0.23c-0.11-0.12-0.21-0.24-0.32-0.35    c-0.02-0.01-0.03-0.03-0.05-0.05c-10.63-10.25-22.12-15.23-35.14-15.23c-15.3,0-29.83,7.01-43.89,13.78    c-13.01,6.28-25.29,12.2-36.94,12.2c-4.39,0-8.5-0.85-12.46-2.63c-3.95-1.77-7.77-4.46-11.57-8.12c-2.31-2.23-5.73-2.86-8.68-1.6    c-2.95,1.25-4.87,4.15-4.87,7.36v45c0,2.17,0.88,4.25,2.44,5.76c10.63,10.25,22.13,15.23,35.14,15.23c0,0,0,0,0.01,0    c15.29,0,29.83-7.01,43.88-13.78c13.01-6.28,25.3-12.2,36.94-12.2c7.85,0,14.78,2.73,21.59,8.54v235.45H54    c-2.34,0-4.55,1.02-6.07,2.79c-1.52,1.77-2.19,4.12-1.84,6.43l4.91,31.9c-12.77,0.92-19.81,7.63-25.53,13.1    c-5.33,5.1-9.18,8.78-17.47,8.78c-4.42,0-8,3.58-8,8s3.58,8,8,8c14.71,0,22.37-7.33,28.53-13.22c5.33-5.1,9.18-8.78,17.47-8.78    s12.15,3.68,17.48,8.78c6.15,5.89,13.82,13.22,28.53,13.22s22.37-7.33,28.53-13.22c5.33-5.1,9.18-8.78,17.47-8.78    s12.14,3.68,17.47,8.78c6.15,5.89,13.82,13.22,28.53,13.22s22.37-7.33,28.53-13.22c5.32-5.1,9.18-8.78,17.46-8.78    c8.29,0,12.14,3.68,17.47,8.78c6.16,5.89,13.82,13.22,28.53,13.22s22.37-7.33,28.53-13.22c5.33-5.1,9.18-8.78,17.47-8.78    s12.14,3.68,17.47,8.78c6.16,5.89,13.82,13.22,28.53,13.22s22.37-7.33,28.53-13.22c5.33-5.1,9.18-8.78,17.47-8.78    s12.14,3.68,17.47,8.78c6.16,5.89,13.82,13.22,28.53,13.22c4.42,0,8-3.58,8-8S472.42,390.995,468,390.995z M209.41,68.005    c-15.3,0-29.83,7.01-43.89,13.78c-13,6.28-25.29,12.2-36.93,12.2h-0.01c-7.85,0-14.78-2.72-21.58-8.53v-25.73    c6.75,3.53,13.9,5.26,21.58,5.26c7.65,0,15.11-1.75,22.41-4.35s14.45-6.04,21.48-9.43c13.01-6.28,25.3-12.2,36.94-12.2    c7.85,0,14.78,2.72,21.59,8.53v25.73C224.24,69.735,217.09,68.005,209.41,68.005z M374.66,390.955    c-7.38-0.38-11.1-3.93-16.13-8.74c-6.16-5.89-13.82-13.22-28.53-13.22s-22.37,7.33-28.53,13.22c-5.33,5.1-9.18,8.78-17.47,8.78    s-12.14-3.68-17.47-8.78c-6.15-5.89-13.82-13.22-28.53-13.22c-14.7,0-22.37,7.33-28.52,13.22c-5.33,5.1-9.18,8.78-17.47,8.78    s-12.14-3.68-17.47-8.78c-6.16-5.89-13.82-13.22-28.53-13.22s-22.38,7.33-28.53,13.22c-5.33,5.1-9.18,8.78-17.47,8.78    s-12.15-3.68-17.48-8.78c-3.91-3.74-8.43-8.06-14.98-10.71l-4.23-27.51h352.2C412.57,366.585,396.17,385.005,374.66,390.955z"/><path d="M376,436.995c-8.289,0-12.14-3.683-17.469-8.781c-6.157-5.89-13.819-13.219-28.529-13.219s-22.373,7.33-28.53,13.219    c-5.33,5.098-9.18,8.781-17.47,8.781c-8.289,0-12.14-3.683-17.469-8.781c-6.157-5.89-13.819-13.219-28.528-13.219    c-4.418,0-8,3.582-8,8c0,4.419,3.582,8,8,8c8.289,0,12.14,3.683,17.469,8.781c6.157,5.89,13.819,13.219,28.528,13.219    c14.71,0,22.373-7.33,28.53-13.219c5.33-5.098,9.18-8.781,17.47-8.781s12.14,3.683,17.469,8.781    c6.157,5.89,13.819,13.219,28.529,13.219c4.419,0,8-3.581,8-8C384,440.577,380.418,436.995,376,436.995z"/></g></g><g transform="matrix(0.13499528169631958 0 0 0.13499528169631958 27 11)" id="L1_70"><path d="M142.076,150.159c-3.116-14.683-16.277-25.339-31.296-25.339c-6.001,0-11.842,1.663-16.898,4.825   C88.19,116.386,75.197,107.82,60.78,107.82c-19.851,0-36,16.149-36,36c0,9.41,3.206,16,3.206,16h116.141L142.076,150.159z" fill="#efefef"/><path d="M227.976,50.339C224.86,35.657,211.699,25,196.68,25c-6.002,0-11.844,1.664-16.899,4.825   C174.09,16.566,161.097,8,146.68,8c-19.851,0-36,16.149-36,36c0,9.48,3.167,16,3.167,16h116.178L227.976,50.339z" fill="#efefef"/><path d="M418.976,304.339C415.86,289.657,402.699,279,387.68,279c-6.002,0-11.844,1.664-16.899,4.825   C365.09,270.566,352.097,262,337.68,262c-19.851,0-36,16.149-36,36c0,9.064,3.167,16,3.167,16h116.178L418.976,304.339z" fill="#efefef"/><path d="M330.077,113.531 397.93,181.383 397.93,45.664z" fill="#3e81c8"/><path d="M330.069,113.526 221.145,222.463 397.936,181.381z" fill="#3e81c8"/><path d="M262.216,45.669 330.069,113.524 397.937,45.669z" fill="#f8a805"/><path d="M262.219,45.664 221.136,222.467 330.073,113.53z" fill="#f8a805"/><g><path d="M110.78,116.82c-4.65,0-9.23,0.8-13.54,2.35c-8.09-11.97-21.66-19.35-36.46-19.35c-24.26,0-44,19.74-44,44    c0,6.87,1.54,13.45,4.59,19.56c1.35,2.72,4.12,4.44,7.16,4.44h114.11c4.13,0,7.59-3.15,7.96-7.28c0.12-1.25,0.18-2.51,0.18-3.72    C150.78,134.76,132.83,116.82,110.78,116.82z M33.94,151.82c-0.77-2.57-1.16-5.25-1.16-8c0-15.44,12.56-28,28-28    c11.21,0,21.32,6.66,25.75,16.98c0.92,2.14,2.73,3.78,4.96,4.47c2.23,0.7,4.65,0.39,6.63-0.85c3.77-2.35,8.15-3.6,12.66-3.6    c11.52,0,21.17,8.16,23.47,19L33.94,151.82L33.94,151.82z"/><path d="M196.68,17c-4.65,0-9.23,0.8-13.54,2.35C175.05,7.38,161.48,0,146.68,0c-24.26,0-44,19.74-44,44    c0,6.87,1.54,13.45,4.59,19.56c1.35,2.72,4.12,4.44,7.16,4.44h114.11c4.13,0,7.59-3.16,7.96-7.28c0.12-1.26,0.18-2.51,0.18-3.72    C236.68,34.94,218.73,17,196.68,17z M119.83,52c-0.76-2.58-1.15-5.25-1.15-8c0-15.44,12.56-28,28-28    c11.21,0,21.32,6.66,25.75,16.98c0.92,2.14,2.73,3.78,4.96,4.47c2.23,0.7,4.65,0.39,6.63-0.85c3.77-2.35,8.15-3.6,12.66-3.6    c11.52,0,21.17,8.16,23.47,19C220.15,52,119.83,52,119.83,52z"/><path d="M387.68,271c-4.65,0-9.23,0.8-13.54,2.35c-8.09-11.97-21.66-19.35-36.46-19.35c-24.26,0-44,19.74-44,44    c0,6.87,1.54,13.45,4.59,19.56c1.35,2.72,4.12,4.44,7.16,4.44h114.11c4.13,0,7.59-3.16,7.96-7.28c0.12-1.26,0.18-2.51,0.18-3.72    C427.68,288.94,409.73,271,387.68,271z M310.83,306c-0.76-2.58-1.15-5.25-1.15-8c0-15.44,12.56-28,28-28    c11.21,0,21.32,6.66,25.75,16.98c0.92,2.14,2.73,3.78,4.96,4.47c2.23,0.7,4.65,0.39,6.63-0.85c3.77-2.35,8.15-3.6,12.66-3.6    c11.52,0,21.17,8.16,23.47,19H310.83z"/><path d="M397.93,37.67H262.22c-3.73,0-6.96,2.56-7.8,6.19l-41.07,176.79c-0.01,0.03-0.14,0.69-0.17,0.99v0.03    c-0.03,0.26-0.04,0.53-0.04,0.79v41.76c0,9.51-7.74,17.24-17.25,17.24h-35.51c-18.33,0-33.24,14.92-33.24,33.25v0.51    c0,18.33,14.91,33.24,33.24,33.24h29.51c9.51,0,17.25,7.74,17.25,17.25v3.51c0,9.51-7.74,17.24-17.25,17.24h-44.51    c-18.33,0-33.24,14.92-33.24,33.25v16.75c0,4.42,3.58,8,8,8s8-3.58,8-8v-16.75c0-9.51,7.73-17.25,17.24-17.25h44.51    c18.33,0,33.25-14.91,33.25-33.24v-3.51c0-18.33-14.92-33.25-33.25-33.25h-29.51c-9.51,0-17.24-7.73-17.24-17.24v-0.51    c0-9.51,7.73-17.25,17.24-17.25h35.51c18.33,0,33.25-14.91,33.25-33.24v-35.4l170.6-39.64c3.63-0.84,6.19-4.07,6.19-7.79V45.67    C405.93,41.25,402.35,37.67,397.93,37.67z M378.62,53.67l-48.55,48.54l-48.54-48.54H378.62z M266.75,61.51l52.01,52.02l-83.5,83.5    L266.75,61.51z M246.58,208.34l83.49-83.5l52.02,52.01L246.58,208.34z M389.93,162.07l-48.54-48.54l48.54-48.55V162.07z"/></g></g><g transform="matrix(0.13636364042758942 0 0 0.13636364042758942 116 246)" id="L1_71"><path d="M285.994,322.5 220,229.503 220,365.41 408.002,365.41z" fill="#3e81c8"/><path d="M408.003,365.41 220,112.498 220,112.499 31.991,365.41 220,365.41 220,229.5    285.997,322.503z" fill="#f8a805"/><path d="M397.296,98.84C394.181,84.157,381.019,73.5,366,73.5c-6.013,0-11.858,1.67-16.898,4.825   C343.411,65.066,330.418,56.5,316,56.5c-19.851,0-36,16.149-36,36c0,9.944,3.207,16,3.207,16h116.138L397.296,98.84z" fill="#efefef"/><path d="M151.296,106.839C148.18,92.156,135.019,81.5,120,81.5c-6.013,0-11.859,1.67-16.898,4.825   C97.411,73.066,84.417,64.5,70,64.5c-19.851,0-36,16.149-36,36c0,10.25,3.205,16,3.205,16h116.141L151.296,106.839z" fill="#efefef"/><g><path d="M432,338.5c-4.42,0-8,3.58-8,8v10.91h-11.98l-72.62-97.7c3.52,1.05,7.78,1.79,13.22,1.79c11.52,0,17.78-3.28,22.81-5.91    c4.36-2.29,7.8-4.09,15.38-4.09c7.58,0,11.02,1.8,15.38,4.09c5.03,2.63,11.29,5.91,22.81,5.91c4.42,0,8-3.58,8-8    c0-4.42-3.58-8-8-8c-7.58,0-11.02-1.8-15.38-4.09c-5.03-2.63-11.29-5.91-22.81-5.91c-11.51,0-17.77,3.28-22.8,5.91    c-4.36,2.29-7.81,4.09-15.39,4.09c-7.57,0-11.02-1.8-15.38-4.09c-3.86-2.02-8.24-4.32-15.03-5.36c-0.15-0.02-0.29-0.03-0.43-0.04    l-95.36-128.28c-0.1-0.13-0.21-0.24-0.32-0.36c-1.495-1.891-4.024-2.944-6.411-2.852c-2.305,0.089-4.777,1.283-6.109,3.212    L112.61,243.56c-1.5-0.62-2.91-1.34-4.45-2.15c-5.03-2.63-11.29-5.91-22.8-5.91c-11.52,0-17.78,3.28-22.8,5.91    c-4.36,2.29-7.81,4.09-15.38,4.09c-7.58,0-11.02-1.8-15.38-4.09c-5.03-2.63-11.29-5.91-22.8-5.91c-4.42,0-8,3.58-8,8s3.58,8,8,8    c7.57,0,11.02,1.8,15.37,4.09c5.03,2.63,11.29,5.91,22.81,5.91c11.51,0,17.77-3.28,22.8-5.91c4.36-2.29,7.8-4.09,15.38-4.09    c7.57,0,11.02,1.8,15.38,4.09c0.68,0.35,1.38,0.72,2.11,1.09L27.98,357.41H16V346.5c0-4.42-3.58-8-8-8s-8,3.58-8,8v37    c0,4.42,3.58,8,8,8s8-3.58,8-8v-10.09h408v10.09c0,4.42,3.58,8,8,8s8-3.58,8-8v-37C440,342.08,436.42,338.5,432,338.5z     M212,357.41H47.91l12.82-17.24c0.72,0.21,1.48,0.33,2.27,0.33h149V357.41z M212,324.5H72.37L212,136.67V324.5z M228,357.41V254.6    l51.47,72.53c0.96,1.35,2.31,2.37,3.87,2.92l77.8,27.36L228,357.41L228,357.41z M346.88,335.43c-0.11-0.19-0.23-0.38-0.36-0.57    l-37-52c-2.57-3.6-7.56-4.44-11.16-1.88s-4.44,7.56-1.88,11.16l24.26,34.1l-29.69-10.44L228,226.95v-90.28l157.97,212.51    L346.88,335.43z"/><path d="M366,65.5c-4.66,0-9.23,0.8-13.54,2.35C344.37,55.89,330.8,48.5,316,48.5c-24.26,0-44,19.74-44,44    c0,6.87,1.54,13.45,4.59,19.57c1.35,2.71,4.12,4.43,7.16,4.43h114.11c4.13,0,7.59-3.15,7.96-7.27c0.12-1.26,0.18-2.52,0.18-3.73    C406,83.44,388.05,65.5,366,65.5z M289.16,100.5c-0.77-2.57-1.16-5.25-1.16-8c0-15.44,12.56-28,28-28    c11.21,0,21.32,6.66,25.75,16.98c0.92,2.14,2.73,3.78,4.96,4.48c2.23,0.69,4.65,0.38,6.63-0.85c3.77-2.36,8.15-3.61,12.66-3.61    c11.52,0,21.17,8.16,23.47,19H289.16z"/><path d="M120,73.5c-4.66,0-9.23,0.8-13.54,2.35C98.37,63.89,84.8,56.5,70,56.5c-24.26,0-44,19.74-44,44    c0,6.87,1.54,13.45,4.59,19.57c1.35,2.71,4.12,4.43,7.16,4.43h114.11c4.13,0,7.59-3.15,7.96-7.27c0.12-1.26,0.18-2.52,0.18-3.73    C160,91.44,142.05,73.5,120,73.5z M43.16,108.5c-0.77-2.57-1.16-5.25-1.16-8c0-15.44,12.56-28,28-28    c11.21,0,21.32,6.66,25.75,16.98c0.92,2.14,2.73,3.78,4.96,4.48c2.23,0.69,4.65,0.38,6.63-0.85c3.77-2.36,8.15-3.61,12.66-3.61    c11.52,0,21.17,8.16,23.47,19H43.16z"/></g></g><g transform="matrix(0.12652942538261414 0 0 0.12652942538261414 114 181)" id="L1_72"><path d="M392.914,243.615 363.007,272.492 326.622,236.108 309.628,257.314 355.341,336.489    466.448,336.489z" fill="#f8a805"/><path d="M286.184,216.71 233.699,193.488 211.694,229.487 211.799,229.472 211.694,229.491    181.279,191.975 51.534,416.709 401.657,416.709z" fill="#a18671"/><path d="M129.619,232.694 86.966,277.44 59.158,241.082 4.084,336.489 97.839,336.489    143.734,256.998z" fill="#f8a805"/><path d="M96.697,176.069 59.165,241.081 87.008,277.494 129.611,232.695z" fill="#efefef"/><path d="M226.589,113.489 181.281,191.975 211.701,229.485 233.694,193.486 286.191,216.705z" fill="#efefef"/><path d="M356.695,198.581 326.626,236.109 363,272.484 392.869,243.656z" fill="#efefef"/><path d="M433.304,114.822c-3.127-14.679-16.293-25.333-31.304-25.333c-6.001,0-11.844,1.669-16.898,4.824   C379.41,81.055,366.416,72.489,352,72.489c-19.851,0-36,16.149-36,36c0,8.777,3.204,16,3.204,16h116.159L433.304,114.822z" fill="#3e81c8"/><path d="M166.304,99.822C163.177,85.143,150.011,74.489,135,74.489c-6.001,0-11.844,1.669-16.898,4.824   C112.41,66.055,99.416,57.489,85,57.489c-19.851,0-36,16.149-36,36c0,8.444,3.204,16,3.204,16h116.159L166.304,99.822z" fill="#3e81c8"/><g><path d="M472.69,331.479l-2.38-2.99l-107.37-134.92c-1.52-1.89-3.82-2.99-6.24-2.99c0,0,0,0-0.01,0c-2.42,0-4.72,1.11-6.24,3    l-39.74,49.6l-77.19-133.69c-1.43-2.48-4.07-4-6.93-4c-2.85,0-5.5,1.52-6.92,4l-75.96,131.55l-40.1-68.99    c-1.43-2.46-4.06-3.98-6.91-3.98c-0.01,0-0.01,0-0.01,0c-2.86,0.01-5.49,1.53-6.92,4l-88.7,153.63c-0.51,0.89-0.83,1.83-0.97,2.79    H0v16h83.99l-35.22,61c-0.59,1.02-0.91,2.12-1.01,3.22h-0.01v0.06c-0.04,0.52-0.06,1.04,0,1.55v14.39h357.68v-14.29    c0.07-0.56,0.05-1.12,0-1.69v-0.02c-0.11-1.1-0.42-2.2-1.01-3.22l-35.22-61H474C474,344.489,474.95,333.749,472.69,331.479z     M356.7,211.369l25.36,31.6l-18.96,18.3l-25.75-25.75L356.7,211.369z M226.59,129.489l40.41,69.98l-30.07-13.3    c-3.66-1.62-7.97-0.27-10.06,3.15l-16.09,26.33l-19.82-24.44L226.59,129.489z M96.72,192.029l22.96,39.5l-32.01,33.66    l-18.91-24.73L96.72,192.029z M17.94,328.489l42.15-73.02l20.56,26.88c1.42,1.86,3.59,3,5.92,3.13c0.15,0.01,0.29,0.01,0.43,0.01    c2.19,0,4.29-0.89,5.8-2.49l35.26-37.06l6.43,11.07l-41.27,71.48L17.94,328.489L17.94,328.489z M127.12,408.709H65.39l37.08-64.22    l9.23-16l70.69-122.44l23.09,28.48c1.53,1.88,3.82,2.96,6.22,2.96c0.17,0,0.35-0.01,0.53-0.02c2.59-0.17,4.94-1.59,6.29-3.81    l18.35-30.02l9.83,4.35v26.25c0,8.96-7.29,16.25-16.26,16.25h-24.49c-17.78,0-32.25,14.47-32.25,32.25v0.5    c0,17.78,14.47,32.25,32.25,32.25h66.49c7.86,0,14.42,5.59,15.93,13c0.22,1.05,0.33,2.14,0.33,3.25v14.5    c0,8.96-7.29,16.25-16.26,16.25H157.95c-17.78,0-32.25,14.47-32.25,32.25v4.5C125.7,402.529,126.2,405.709,127.12,408.709z     M387.8,408.709H144.75c-1.92-2.67-3.05-5.94-3.05-9.47v-4.5c0-8.96,7.29-16.25,16.25-16.25h114.49    c17.79,0,32.26-14.47,32.26-32.25v-14.5c0-1.1-0.06-2.18-0.17-3.25c-1.63-16.26-15.4-29-32.09-29h-66.49    c-8.96,0-16.25-7.29-16.25-16.25v-0.5c0-8.96,7.29-16.25,16.25-16.25h24.49c17.79,0,32.26-14.47,32.26-32.25v-19.18l17.86,7.91    l60.92,105.52l9.24,16L387.8,408.709z M359.96,328.489l-40.67-70.44l7.99-9.97l30.07,30.07c1.56,1.56,3.6,2.34,5.65,2.34    c2.01,0,4.01-0.75,5.56-2.25l23.56-22.74l57.79,72.99H359.96z"/><path d="M402,81.489c-4.65,0-9.23,0.8-13.54,2.35c-8.09-11.96-21.66-19.35-36.46-19.35c-24.26,0-44,19.74-44,44    c0,6.87,1.55,13.45,4.59,19.57c1.35,2.71,4.13,4.43,7.16,4.43h114.11c4.14,0,7.6-3.16,7.97-7.28c0.12-1.26,0.17-2.51,0.17-3.72    C442,99.429,424.06,81.489,402,81.489z M325.16,116.489c-0.77-2.57-1.16-5.25-1.16-8c0-15.44,12.56-28,28-28    c11.22,0,21.32,6.66,25.75,16.98c0.92,2.14,2.73,3.78,4.96,4.48c2.23,0.69,4.65,0.38,6.63-0.85c3.78-2.36,8.16-3.61,12.66-3.61    c11.52,0,21.17,8.16,23.48,19H325.16z"/><path d="M135,66.489c-4.65,0-9.23,0.8-13.54,2.35c-8.09-11.96-21.66-19.35-36.46-19.35c-24.26,0-44,19.74-44,44    c0,6.87,1.55,13.45,4.59,19.57c1.35,2.71,4.13,4.43,7.16,4.43h114.11c4.14,0,7.59-3.15,7.97-7.27c0.11-1.26,0.17-2.52,0.17-3.73    C175,84.429,157.06,66.489,135,66.489z M58.16,101.489c-0.77-2.57-1.16-5.25-1.16-8c0-15.44,12.56-28,28-28    c11.22,0,21.32,6.66,25.75,16.98c0.92,2.14,2.74,3.78,4.96,4.48c2.23,0.69,4.65,0.38,6.63-0.85c3.78-2.36,8.16-3.61,12.66-3.61    c11.52,0,21.17,8.16,23.48,19H58.16z"/></g></g><g transform="matrix(0.13904982805252075 0 0 0.13904982805252075 50 244)" id="L1_73"><path d="M208.5,293.16c-16.542,0-30,13.458-30,30c0,12.43,7.49,23.396,19.081,27.938l10.919,4.279v-1.953   l10.923-2.328c11.589-4.548,19.077-15.515,19.077-27.938C238.5,306.618,225.042,293.16,208.5,293.16z" fill="#f8a805"/><circle cx="80" cy="323" r="72" fill="#3e81c8"/><circle cx="346" cy="323" r="72" fill="#3e81c8"/><path d="M168.695,78.18c-3.115-14.683-16.277-25.34-31.295-25.34c-6.013,0-11.859,1.67-16.899,4.825   C114.81,44.406,101.817,35.84,87.4,35.84c-19.851,0-36,16.149-36,36c0,3.516,0.503,6.979,1.496,10.295l1.708,5.705h116.141   L168.695,78.18z" fill="#efefef"/><path d="M422.796,137.5c-3.115-14.683-16.277-25.34-31.296-25.34c-6.005,0-11.851,1.668-16.898,4.824   C368.91,103.727,355.917,95.16,341.5,95.16c-19.851,0-36,16.149-36,36c0,3.519,0.504,6.983,1.497,10.297l1.71,5.703h116.138   L422.796,137.5z" fill="#efefef"/><g><path d="M346,242.66c-10.771,0-21.04,2.14-30.44,5.99l-33.97-65.19c-0.33-0.64-3.09-8.3-9.09-8.3h-27c-4.42,0-8,3.58-8,8    s3.58,8,8,8h22.06l13.81,26.5h-97.46l-6.09-19.5h10.68c4.42,0,8-3.58,8-8s-3.58-8-8-8h-49c-4.42,0-8,3.58-8,8s3.58,8,8,8h21.55    l7.89,25.24l-37.49,37.49c-13.89-11.38-31.63-18.23-50.95-18.23c-44.39,0-80.5,36.11-80.5,80.5s36.11,80.5,80.5,80.5    c41.34,0,75.49-31.33,79.98-71.5h11.1c3.43,14.07,14.71,25.09,28.92,28.15v10.85h-13c-4.42,0-8,3.58-8,8s3.58,8,8,8h21    c4.42,0,8-3.58,8-8v-18.85c17.12-3.69,30-18.94,30-37.15c0-8.71-2.96-16.74-7.9-23.16l53.04-62.63l9.79,18.79    c-21.64,14.45-35.93,39.08-35.93,67c0,44.39,36.11,80.5,80.5,80.5s80.5-36.11,80.5-80.5S390.39,242.66,346,242.66z M80.5,387.66    c-35.57,0-64.5-28.93-64.5-64.5s28.93-64.5,64.5-64.5c14.9,0,28.63,5.1,39.57,13.62L74.84,317.5c-3.12,3.13-3.12,8.19,0,11.32    c1.56,1.56,3.61,2.34,5.66,2.34c0.34,0,0.67-0.03,1.01-0.07c1.17,0.68,2.53,1.07,3.99,1.07h58.86    C139.96,363.48,113.01,387.66,80.5,387.66z M98.81,316.16l32.57-32.57c7.17,9.2,11.91,20.38,13.23,32.57H98.81z M171.16,316.16    h-10.49c-1.43-16.59-7.91-31.76-17.9-43.95l31.56-31.57l15.46,49.47C180.23,295.54,173.24,305,171.16,316.16z M216.5,343.65    v-17.49c0-4.42-3.58-8-8-8s-8,3.58-8,8v17.49c-8.19-3.21-14-11.18-14-20.49c0-12.13,9.87-22,22-22s22,9.87,22,22    C230.5,332.47,224.68,340.44,216.5,343.65z M226.4,289.65c-5.34-2.86-11.43-4.49-17.9-4.49c-1.16,0-2.31,0.06-3.44,0.16    l-16.15-51.66h84.91L226.4,289.65z M346,387.66c-35.57,0-64.5-28.93-64.5-64.5c0-21.76,10.84-41.02,27.38-52.7l32.52,62.4    c1.43,2.73,4.22,4.3,7.1,4.3c1.25,0,2.51-0.29,3.7-0.91c3.91-2.04,5.43-6.87,3.39-10.79L323,262.91c7.15-2.73,14.9-4.25,23-4.25    c35.56,0,64.5,28.93,64.5,64.5S381.56,387.66,346,387.66z"/><path d="M137.4,44.84c-4.65,0-9.23,0.8-13.54,2.35c-8.09-11.96-21.66-19.35-36.46-19.35c-24.26,0-44,19.74-44,44    c0,6.87,1.54,13.45,4.59,19.57c1.35,2.71,4.12,4.43,7.16,4.43h114.11c4.14,0,7.59-3.16,7.97-7.28c0.11-1.27,0.17-2.52,0.17-3.72    C177.4,62.78,159.45,44.84,137.4,44.84z M60.56,79.84c-0.77-2.57-1.16-5.25-1.16-8c0-15.44,12.56-28,28-28    c11.21,0,21.32,6.66,25.75,16.98c0.92,2.14,2.73,3.78,4.96,4.47c2.22,0.7,4.65,0.39,6.63-0.84c3.77-2.36,8.15-3.61,12.66-3.61    c11.52,0,21.17,8.16,23.47,19H60.56z"/><path d="M391.5,104.16c-4.65,0-9.23,0.8-13.54,2.35c-8.09-11.96-21.66-19.35-36.46-19.35c-24.26,0-44,19.74-44,44    c0,6.87,1.54,13.45,4.59,19.57c1.35,2.71,4.12,4.43,7.16,4.43h114.11c4.14,0,7.59-3.16,7.97-7.28c0.11-1.26,0.17-2.51,0.17-3.72    C431.5,122.1,413.55,104.16,391.5,104.16z M314.66,139.16c-0.77-2.57-1.16-5.25-1.16-8c0-15.44,12.56-28,28-28    c11.21,0,21.32,6.66,25.75,16.98c0.92,2.14,2.729,3.78,4.96,4.47c2.22,0.7,4.65,0.39,6.62-0.84c3.78-2.36,8.16-3.61,12.67-3.61    c11.52,0,21.17,8.16,23.47,19H314.66z"/></g></g><g transform="matrix(0.13333334028720856 0 0 0.13333334028720856 164 62)" id="L1_74"><path d="M180,315v112.15c0,8.188,6.662,14.85,14.85,14.85h0.3c8.143,0,14.775-6.587,14.85-14.712    l0.001-0.009C210.07,435.408,216.705,442,224.85,442h0.311c8.183,0,14.84-6.661,14.84-14.85V315H180z" fill="#3e81c8"/><path d="M221.443,283.879l-6.508,2.052c-3.827,1.207-7.889,1.403-11.904,0.524l-6.08-1.332L182.002,315    h55.002L221.443,283.879z" fill="#3e81c8"/><path d="M208,241c-12.682,0-23,10.317-23,23c0,12.683,10.318,23,23,23c12.683,0,23-10.317,23-23    S220.683,241,208,241z" fill="#3e81c8"/><path d="M340.683,161.863c-5.612-50.869-40.527-94.642-88.95-111.518l-26.434-9.212l17.574,21.789    c3.911,4.85,7.576,10.514,10.896,16.84c11.551,21.971,18.813,51.476,20.452,83.081l0.306,5.905l5.735,1.439    c4.86,1.221,8.004,3.94,11.04,6.568c4.111,3.561,8.362,7.243,16.738,7.243s12.627-3.683,16.788-7.286    c2.86-2.462,5.817-5.007,10.184-6.306l6.403-1.904L340.683,161.863z" fill="#f8a805"/><path d="M274.179,162.217c-3.271-60.238-26.377-108.65-56.188-117.729l-10.331-3.146v127.352l5.948,1.579    c4.724,1.254,7.8,3.918,10.792,6.509c4.109,3.549,8.358,7.219,16.711,7.219c8.362,0,12.616-3.675,16.738-7.235    c2.921-2.521,5.94-5.129,10.507-6.413l6.171-1.734L274.179,162.217z" fill="#f8a805"/><path d="M197.328,44.488c-29.817,9.088-52.926,57.5-56.196,117.729l-0.348,6.403l6.174,1.732    c4.573,1.284,7.593,3.892,10.504,6.404c4.111,3.561,8.362,7.243,16.728,7.243c8.375,0,12.626-3.682,16.728-7.234    c2.988-2.579,6.078-5.246,10.803-6.505l5.94-1.583V41.339L197.328,44.488z" fill="#f8a805"/><path d="M163.587,50.346C115.169,67.22,80.25,110.992,74.628,161.861l-0.734,6.642l6.404,1.905    c4.397,1.309,7.365,3.871,10.234,6.349c4.111,3.562,8.363,7.243,16.737,7.243s12.626-3.682,16.735-7.241    c3.038-2.629,6.18-5.349,11.05-6.569l5.74-1.438l0.304-5.909c1.628-31.598,8.888-61.102,20.44-83.076    c3.334-6.337,7.004-12.004,10.907-16.843l17.574-21.789L163.587,50.346z" fill="#f8a805"/><path d="M130.304,374.333C127.176,359.654,114.011,349,99,349c-5.998,0-11.841,1.668-16.899,4.825    C76.41,340.566,63.417,332,49,332c-19.851,0-36,16.149-36,36c0,9.417,3.206,16,3.206,16h116.159L130.304,374.333z" fill="#efefef"/><path d="M436.305,50.332C433.176,35.653,420.011,25,405,25c-5.998,0-11.841,1.668-16.896,4.831    C382.424,16.569,369.43,8,355,8c-19.851,0-36,16.149-36,36c0,9,3.207,16,3.207,16h116.158L436.305,50.332z" fill="#efefef"/><g><path d="M349.11,171.26c0.16-0.7,0.23-1.42,0.19-2.15c-3.86-72.57-61.87-129.97-133.64-133.96V27c0-4.42-3.58-8-8-8s-8,3.58-8,8     v8.15C127.88,39.14,69.88,96.54,66.02,169.11c-0.12,2.18,0.66,4.31,2.16,5.9c0.04,0.05,0.08,0.08,0.12,0.12     c0.25,0.91,0.66,1.79,1.25,2.6l50.61,69.09v44.76c0,17.32,14.09,31.42,31.42,31.42H172v104.15c0,12.6,10.26,22.85,22.85,22.85     h0.3c5.67,0,10.86-2.08,14.85-5.5c4,3.42,9.19,5.5,14.85,5.5h0.31c12.59,0,22.84-10.25,22.84-22.85V323h15.73     c17.33,0,31.43-14.1,31.43-31.42V250c0-0.14-0.02-0.28-0.02-0.42l52.62-71.85C349.18,175.79,349.59,173.43,349.11,171.26z      M215.66,52.14c26.07,7.94,47.46,53.97,50.53,110.51c-6.26,1.76-10.35,5.28-13.57,8.06c-3.82,3.3-6.12,5.29-11.51,5.29     c-5.38,0-7.68-1.99-11.49-5.28c-3.29-2.85-7.48-6.46-13.96-8.18L215.66,52.14L215.66,52.14z M199.66,52.14v110.39     c-6.49,1.73-10.68,5.34-13.97,8.18c-3.81,3.3-6.11,5.29-11.5,5.29c-5.38,0-7.68-1.99-11.49-5.29c-3.22-2.78-7.31-6.3-13.58-8.06     C152.19,106.11,173.58,60.09,199.66,52.14z M82.58,162.74C88,113.7,121.43,73.51,166.22,57.9c-4.21,5.22-8.15,11.28-11.76,18.14     c-12.16,23.13-19.66,53.59-21.35,86.39c-6.7,1.68-10.99,5.38-14.34,8.28c-3.81,3.3-6.12,5.29-11.5,5.29     c-5.39,0-7.69-1.99-11.5-5.29C92.61,167.98,88.63,164.54,82.58,162.74z M151.58,307c-8.5,0-15.42-6.92-15.42-15.42v-22.91     L164.23,307H151.58z M232,427.15c0,3.78-3.07,6.85-6.84,6.85h-0.31c-3.77,0-6.85-3.07-6.85-6.85c0-0.37-0.03-0.72-0.08-1.07     c0.05-0.36,0.08-0.71,0.08-1.08v-44c0-4.42-3.58-8-8-8c-4.41,0-8,3.58-8,8v44c0,0.37,0.04,0.72,0.09,1.08     c-0.05,0.35-0.09,0.7-0.09,1.07c0,3.78-3.07,6.85-6.85,6.85h-0.3c-3.77,0-6.85-3.07-6.85-6.85V323h44L232,427.15L232,427.15z      M208,279c-8.27,0-15-6.73-15-15s6.73-15,15-15c8.28,0,15,6.73,15,15C223,272.27,216.28,279,208,279z M224.06,307h-29.11     l6.37-12.73c2.15,0.47,4.39,0.73,6.68,0.73c3.26,0,6.39-0.51,9.34-1.44L224.06,307z M279.16,291.58c0,8.5-6.92,15.42-15.43,15.42     h-10.65l26.08-35.6V291.58z M238.42,299.94l-7.26-14.52c-0.09-0.18-0.19-0.34-0.29-0.51c5.05-5.52,8.13-12.86,8.13-20.91     c0-17.09-13.9-31-31-31c-17.09,0-31,13.91-31,31c0,9.05,3.91,17.21,10.12,22.89l-7.22,14.43l-44.59-60.88     c-0.41-0.82-0.95-1.56-1.6-2.2l-34.65-47.31c2.4,0.66,5.1,1.07,8.21,1.07c11.34,0,17.48-5.31,21.96-9.18     c3.81-3.3,6.11-5.29,11.5-5.29h0.08c5.33,0.02,7.62,2,11.42,5.29c4.48,3.87,10.62,9.18,21.96,9.18c11.35,0,17.48-5.31,21.97-9.19     c3.81-3.29,6.11-5.28,11.49-5.28c5.39,0,7.69,1.99,11.5,5.29c4.48,3.87,10.62,9.18,21.96,9.18c11.35,0,17.49-5.31,21.97-9.18     c3.8-3.29,6.09-5.27,11.49-5.29c5.39,0,7.69,1.99,11.51,5.29c4.48,3.87,10.62,9.18,21.96,9.18c4.3,0,7.85-0.76,10.85-1.92     L238.42,299.94z M319.54,170.71c-3.81,3.3-6.11,5.29-11.5,5.29c-5.38,0-7.69-1.99-11.5-5.29c-3.35-2.9-7.64-6.6-14.33-8.28     c-1.7-32.8-9.2-63.26-21.36-86.39c-3.6-6.86-7.54-12.92-11.75-18.14c44.79,15.61,78.22,55.8,83.63,104.84     C326.68,164.54,322.7,167.99,319.54,170.71z"/><path d="M99,341c-4.65,0-9.22,0.8-13.54,2.35C77.38,331.39,63.8,324,49,324c-24.26,0-44,19.74-44,44     c0,6.87,1.55,13.45,4.59,19.57c1.36,2.71,4.13,4.43,7.16,4.43h114.11c4.14,0,7.6-3.15,7.97-7.27c0.12-1.26,0.17-2.52,0.17-3.73     C139,358.94,121.06,341,99,341z M22.16,376c-0.77-2.57-1.16-5.25-1.16-8c0-15.44,12.57-28,28-28c11.22,0,21.32,6.66,25.75,16.98     c0.93,2.14,2.74,3.78,4.96,4.48c2.23,0.69,4.65,0.38,6.63-0.85C90.12,358.25,94.5,357,99,357c11.52,0,21.17,8.16,23.48,19H22.16z     "/><path d="M405,17c-4.65,0-9.22,0.8-13.54,2.35C383.38,7.39,369.8,0,355,0c-24.26,0-44,19.74-44,44c0,6.87,1.55,13.45,4.59,19.57     c1.36,2.71,4.13,4.43,7.16,4.43h114.12c4.13,0,7.59-3.16,7.96-7.28c0.12-1.26,0.17-2.51,0.17-3.72C445,34.94,427.06,17,405,17z      M328.16,52c-0.77-2.57-1.16-5.25-1.16-8c0-15.44,12.57-28,28-28c11.22,0,21.33,6.66,25.75,16.98c0.92,2.14,2.74,3.78,4.96,4.48     c2.23,0.69,4.65,0.38,6.63-0.85C396.12,34.25,400.5,33,405,33c11.52,0,21.17,8.16,23.48,19H328.16z"/></g></g></defs><g fi:class="KUsePattern"><pattern id="pattern_L1_66" width="350" height="350" patternUnits="userSpaceOnUse"><use xlink:href="#L1_66" x="-350" y="-350"/><use xlink:href="#L1_66" x="0" y="-350"/><use xlink:href="#L1_66" x="350" y="-350"/><use xlink:href="#L1_66" x="-350" y="0"/><use xlink:href="#L1_66" x="0" y="0"/><use xlink:href="#L1_66" x="350" y="0"/><use xlink:href="#L1_66" x="-350" y="350"/><use xlink:href="#L1_66" x="0" y="350"/><use xlink:href="#L1_66" x="350" y="350"/></pattern><rect x="0" y="0" width="100%" height="100%" fill="url(#pattern_L1_66)"/></g><g fi:class="KUsePattern"><pattern id="pattern_L1_67" width="350" height="350" patternUnits="userSpaceOnUse"><use xlink:href="#L1_67" x="-350" y="-350"/><use xlink:href="#L1_67" x="0" y="-350"/><use xlink:href="#L1_67" x="350" y="-350"/><use xlink:href="#L1_67" x="-350" y="0"/><use xlink:href="#L1_67" x="0" y="0"/><use xlink:href="#L1_67" x="350" y="0"/><use xlink:href="#L1_67" x="-350" y="350"/><use xlink:href="#L1_67" x="0" y="350"/><use xlink:href="#L1_67" x="350" y="350"/></pattern><rect x="0" y="0" width="100%" height="100%" fill="url(#pattern_L1_67)"/></g><g fi:class="KUsePattern"><pattern id="pattern_L1_68" width="350" height="350" patternUnits="userSpaceOnUse"><use xlink:href="#L1_68" x="-350" y="-350"/><use xlink:href="#L1_68" x="0" y="-350"/><use xlink:href="#L1_68" x="350" y="-350"/><use xlink:href="#L1_68" x="-350" y="0"/><use xlink:href="#L1_68" x="0" y="0"/><use xlink:href="#L1_68" x="350" y="0"/><use xlink:href="#L1_68" x="-350" y="350"/><use xlink:href="#L1_68" x="0" y="350"/><use xlink:href="#L1_68" x="350" y="350"/></pattern><rect x="0" y="0" width="100%" height="100%" fill="url(#pattern_L1_68)"/></g><g fi:class="KUsePattern"><pattern id="pattern_L1_69" width="350" height="350" patternUnits="userSpaceOnUse"><use xlink:href="#L1_69" x="-350" y="-350"/><use xlink:href="#L1_69" x="0" y="-350"/><use xlink:href="#L1_69" x="350" y="-350"/><use xlink:href="#L1_69" x="-350" y="0"/><use xlink:href="#L1_69" x="0" y="0"/><use xlink:href="#L1_69" x="350" y="0"/><use xlink:href="#L1_69" x="-350" y="350"/><use xlink:href="#L1_69" x="0" y="350"/><use xlink:href="#L1_69" x="350" y="350"/></pattern><rect x="0" y="0" width="100%" height="100%" fill="url(#pattern_L1_69)"/></g><g fi:class="KUsePattern"><pattern id="pattern_L1_70" width="350" height="350" patternUnits="userSpaceOnUse"><use xlink:href="#L1_70" x="-350" y="-350"/><use xlink:href="#L1_70" x="0" y="-350"/><use xlink:href="#L1_70" x="350" y="-350"/><use xlink:href="#L1_70" x="-350" y="0"/><use xlink:href="#L1_70" x="0" y="0"/><use xlink:href="#L1_70" x="350" y="0"/><use xlink:href="#L1_70" x="-350" y="350"/><use xlink:href="#L1_70" x="0" y="350"/><use xlink:href="#L1_70" x="350" y="350"/></pattern><rect x="0" y="0" width="100%" height="100%" fill="url(#pattern_L1_70)"/></g><g fi:class="KUsePattern"><pattern id="pattern_L1_71" width="350" height="350" patternUnits="userSpaceOnUse"><use xlink:href="#L1_71" x="-350" y="-350"/><use xlink:href="#L1_71" x="0" y="-350"/><use xlink:href="#L1_71" x="350" y="-350"/><use xlink:href="#L1_71" x="-350" y="0"/><use xlink:href="#L1_71" x="0" y="0"/><use xlink:href="#L1_71" x="350" y="0"/><use xlink:href="#L1_71" x="-350" y="350"/><use xlink:href="#L1_71" x="0" y="350"/><use xlink:href="#L1_71" x="350" y="350"/></pattern><rect x="0" y="0" width="100%" height="100%" fill="url(#pattern_L1_71)"/></g><g fi:class="KUsePattern"><pattern id="pattern_L1_72" width="350" height="350" patternUnits="userSpaceOnUse"><use xlink:href="#L1_72" x="-350" y="-350"/><use xlink:href="#L1_72" x="0" y="-350"/><use xlink:href="#L1_72" x="350" y="-350"/><use xlink:href="#L1_72" x="-350" y="0"/><use xlink:href="#L1_72" x="0" y="0"/><use xlink:href="#L1_72" x="350" y="0"/><use xlink:href="#L1_72" x="-350" y="350"/><use xlink:href="#L1_72" x="0" y="350"/><use xlink:href="#L1_72" x="350" y="350"/></pattern><rect x="0" y="0" width="100%" height="100%" fill="url(#pattern_L1_72)"/></g><g fi:class="KUsePattern"><pattern id="pattern_L1_73" width="350" height="350" patternUnits="userSpaceOnUse"><use xlink:href="#L1_73" x="-350" y="-350"/><use xlink:href="#L1_73" x="0" y="-350"/><use xlink:href="#L1_73" x="350" y="-350"/><use xlink:href="#L1_73" x="-350" y="0"/><use xlink:href="#L1_73" x="0" y="0"/><use xlink:href="#L1_73" x="350" y="0"/><use xlink:href="#L1_73" x="-350" y="350"/><use xlink:href="#L1_73" x="0" y="350"/><use xlink:href="#L1_73" x="350" y="350"/></pattern><rect x="0" y="0" width="100%" height="100%" fill="url(#pattern_L1_73)"/></g><g fi:class="KUsePattern"><pattern id="pattern_L1_74" width="350" height="350" patternUnits="userSpaceOnUse"><use xlink:href="#L1_74" x="-350" y="-350"/><use xlink:href="#L1_74" x="0" y="-350"/><use xlink:href="#L1_74" x="350" y="-350"/><use xlink:href="#L1_74" x="-350" y="0"/><use xlink:href="#L1_74" x="0" y="0"/><use xlink:href="#L1_74" x="350" y="0"/><use xlink:href="#L1_74" x="-350" y="350"/><use xlink:href="#L1_74" x="0" y="350"/><use xlink:href="#L1_74" x="350" y="350"/></pattern><rect x="0" y="0" width="100%" height="100%" fill="url(#pattern_L1_74)"/></g></svg>